<?xml version="1.0" encoding="UTF-8" standalone="no"?>
<!DOCTYPE svg PUBLIC "-//W3C//DTD SVG 1.1//EN"
 "http://www.w3.org/Graphics/SVG/1.1/DTD/svg11.dtd">
<!-- Generated by graphviz version 2.40.1 (20161225.0304)
 -->
<!-- Title: Tree Pages: 1 -->
<svg width="1272pt" height="1363pt"
 viewBox="0.00 0.00 1271.64 1363.20" xmlns="http://www.w3.org/2000/svg" xmlns:xlink="http://www.w3.org/1999/xlink">
<g id="graph0" class="graph" transform="scale(1 1) rotate(0) translate(4 1359.2)">
<title>Tree</title>
<polygon fill="#ffffff" stroke="transparent" points="-4,4 -4,-1359.2 1267.6352,-1359.2 1267.6352,4 -4,4"/>
<!-- 0 -->
<g id="node1" class="node">
<title>0</title>
<polygon fill="none" stroke="#000000" points="815.784,-1355.2 674.8512,-1355.2 674.8512,-1263.2 815.784,-1263.2 815.784,-1355.2"/>
<text text-anchor="middle" x="745.3176" y="-1338.6" font-family="Times,serif" font-size="14.00" fill="#000000">최대 심박동수 &lt;= 147.5</text>
<text text-anchor="middle" x="745.3176" y="-1321.8" font-family="Times,serif" font-size="14.00" fill="#000000">gini = 0.447</text>
<text text-anchor="middle" x="745.3176" y="-1305" font-family="Times,serif" font-size="14.00" fill="#000000">samples = 151</text>
<text text-anchor="middle" x="745.3176" y="-1288.2" font-family="Times,serif" font-size="14.00" fill="#000000">value = [100, 51]</text>
<text text-anchor="middle" x="745.3176" y="-1271.4" font-family="Times,serif" font-size="14.00" fill="#000000">class = Negative</text>
</g>
<!-- 1 -->
<g id="node2" class="node">
<title>1</title>
<polygon fill="none" stroke="#000000" points="665.9771,-1227.2 414.6581,-1227.2 414.6581,-1135.2 665.9771,-1135.2 665.9771,-1227.2"/>
<text text-anchor="middle" x="540.3176" y="-1210.6" font-family="Times,serif" font-size="14.00" fill="#000000">형광 투시된 주요 혈관의 수 (0&#45;3) &lt;= 0.5</text>
<text text-anchor="middle" x="540.3176" y="-1193.8" font-family="Times,serif" font-size="14.00" fill="#000000">gini = 0.478</text>
<text text-anchor="middle" x="540.3176" y="-1177" font-family="Times,serif" font-size="14.00" fill="#000000">samples = 71</text>
<text text-anchor="middle" x="540.3176" y="-1160.2" font-family="Times,serif" font-size="14.00" fill="#000000">value = [28, 43]</text>
<text text-anchor="middle" x="540.3176" y="-1143.4" font-family="Times,serif" font-size="14.00" fill="#000000">class = Positive</text>
</g>
<!-- 0&#45;&gt;1 -->
<g id="edge1" class="edge">
<title>0&#45;&gt;1</title>
<path fill="none" stroke="#000000" d="M675.055,-1265.3287C658.3747,-1254.9137 640.4262,-1243.7068 623.2403,-1232.9762"/>
<polygon fill="#000000" stroke="#000000" points="624.6696,-1229.7423 614.3335,-1227.4148 620.9621,-1235.68 624.6696,-1229.7423"/>
<text text-anchor="middle" x="619.9657" y="-1247.5721" font-family="Times,serif" font-size="14.00" fill="#000000">True</text>
</g>
<!-- 32 -->
<g id="node33" class="node">
<title>32</title>
<polygon fill="none" stroke="#000000" points="999.934,-1227.2 756.7012,-1227.2 756.7012,-1135.2 999.934,-1135.2 999.934,-1227.2"/>
<text text-anchor="middle" x="878.3176" y="-1210.6" font-family="Times,serif" font-size="14.00" fill="#000000">운동에 의해 유발된 ST Depression &lt;= 3.35</text>
<text text-anchor="middle" x="878.3176" y="-1193.8" font-family="Times,serif" font-size="14.00" fill="#000000">gini = 0.18</text>
<text text-anchor="middle" x="878.3176" y="-1177" font-family="Times,serif" font-size="14.00" fill="#000000">samples = 80</text>
<text text-anchor="middle" x="878.3176" y="-1160.2" font-family="Times,serif" font-size="14.00" fill="#000000">value = [72, 8]</text>
<text text-anchor="middle" x="878.3176" y="-1143.4" font-family="Times,serif" font-size="14.00" fill="#000000">class = Negative</text>
</g>
<!-- 0&#45;&gt;32 -->
<g id="edge32" class="edge">
<title>0&#45;&gt;32</title>
<path fill="none" stroke="#000000" d="M793.3337,-1262.9891C802.9391,-1253.7447 813.1034,-1243.9625 822.9342,-1234.5013"/>
<polygon fill="#000000" stroke="#000000" points="825.5938,-1236.7993 830.372,-1227.3431 820.7398,-1231.7556 825.5938,-1236.7993"/>
<text text-anchor="middle" x="829.8932" y="-1248.1385" font-family="Times,serif" font-size="14.00" fill="#000000">False</text>
</g>
<!-- 2 -->
<g id="node3" class="node">
<title>2</title>
<polygon fill="none" stroke="#000000" points="313.5517,-1099.2 175.0835,-1099.2 175.0835,-1007.2 313.5517,-1007.2 313.5517,-1099.2"/>
<text text-anchor="middle" x="244.3176" y="-1082.6" font-family="Times,serif" font-size="14.00" fill="#000000">가슴 통증 유형 &lt;= 3.5</text>
<text text-anchor="middle" x="244.3176" y="-1065.8" font-family="Times,serif" font-size="14.00" fill="#000000">gini = 0.458</text>
<text text-anchor="middle" x="244.3176" y="-1049" font-family="Times,serif" font-size="14.00" fill="#000000">samples = 31</text>
<text text-anchor="middle" x="244.3176" y="-1032.2" font-family="Times,serif" font-size="14.00" fill="#000000">value = [20, 11]</text>
<text text-anchor="middle" x="244.3176" y="-1015.4" font-family="Times,serif" font-size="14.00" fill="#000000">class = Negative</text>
</g>
<!-- 1&#45;&gt;2 -->
<g id="edge2" class="edge">
<title>1&#45;&gt;2</title>
<path fill="none" stroke="#000000" d="M433.873,-1135.1699C397.3617,-1119.3812 357.1786,-1102.0048 323.2422,-1087.3296"/>
<polygon fill="#000000" stroke="#000000" points="324.4121,-1084.0223 313.8443,-1083.2656 321.6336,-1090.4473 324.4121,-1084.0223"/>
</g>
<!-- 11 -->
<g id="node12" class="node">
<title>11</title>
<polygon fill="none" stroke="#000000" points="592.035,-1099.2 488.6002,-1099.2 488.6002,-1007.2 592.035,-1007.2 592.035,-1099.2"/>
<text text-anchor="middle" x="540.3176" y="-1082.6" font-family="Times,serif" font-size="14.00" fill="#000000">나이 &lt;= 66.5</text>
<text text-anchor="middle" x="540.3176" y="-1065.8" font-family="Times,serif" font-size="14.00" fill="#000000">gini = 0.32</text>
<text text-anchor="middle" x="540.3176" y="-1049" font-family="Times,serif" font-size="14.00" fill="#000000">samples = 40</text>
<text text-anchor="middle" x="540.3176" y="-1032.2" font-family="Times,serif" font-size="14.00" fill="#000000">value = [8, 32]</text>
<text text-anchor="middle" x="540.3176" y="-1015.4" font-family="Times,serif" font-size="14.00" fill="#000000">class = Positive</text>
</g>
<!-- 1&#45;&gt;11 -->
<g id="edge11" class="edge">
<title>1&#45;&gt;11</title>
<path fill="none" stroke="#000000" d="M540.3176,-1134.9891C540.3176,-1126.7417 540.3176,-1118.0661 540.3176,-1109.5724"/>
<polygon fill="#000000" stroke="#000000" points="543.8177,-1109.3431 540.3176,-1099.3431 536.8177,-1109.3431 543.8177,-1109.3431"/>
</g>
<!-- 3 -->
<g id="node4" class="node">
<title>3</title>
<polygon fill="none" stroke="#000000" points="108.4534,-962.9003 .1818,-962.9003 .1818,-887.4997 108.4534,-887.4997 108.4534,-962.9003"/>
<text text-anchor="middle" x="54.3176" y="-946.2" font-family="Times,serif" font-size="14.00" fill="#000000">gini = 0.0</text>
<text text-anchor="middle" x="54.3176" y="-929.4" font-family="Times,serif" font-size="14.00" fill="#000000">samples = 13</text>
<text text-anchor="middle" x="54.3176" y="-912.6" font-family="Times,serif" font-size="14.00" fill="#000000">value = [13, 0]</text>
<text text-anchor="middle" x="54.3176" y="-895.8" font-family="Times,serif" font-size="14.00" fill="#000000">class = Negative</text>
</g>
<!-- 2&#45;&gt;3 -->
<g id="edge3" class="edge">
<title>2&#45;&gt;3</title>
<path fill="none" stroke="#000000" d="M174.9654,-1009.4406C156.1195,-997.2734 135.8124,-983.9074 117.3176,-971.2 116.0968,-970.3612 114.8652,-969.5101 113.6262,-968.6492"/>
<polygon fill="#000000" stroke="#000000" points="115.5678,-965.736 105.3724,-962.8543 111.5455,-971.465 115.5678,-965.736"/>
</g>
<!-- 4 -->
<g id="node5" class="node">
<title>4</title>
<polygon fill="none" stroke="#000000" points="362.434,-971.2 126.2012,-971.2 126.2012,-879.2 362.434,-879.2 362.434,-971.2"/>
<text text-anchor="middle" x="244.3176" y="-954.6" font-family="Times,serif" font-size="14.00" fill="#000000">운동에 의해 유발된 ST Depression &lt;= 0.7</text>
<text text-anchor="middle" x="244.3176" y="-937.8" font-family="Times,serif" font-size="14.00" fill="#000000">gini = 0.475</text>
<text text-anchor="middle" x="244.3176" y="-921" font-family="Times,serif" font-size="14.00" fill="#000000">samples = 18</text>
<text text-anchor="middle" x="244.3176" y="-904.2" font-family="Times,serif" font-size="14.00" fill="#000000">value = [7, 11]</text>
<text text-anchor="middle" x="244.3176" y="-887.4" font-family="Times,serif" font-size="14.00" fill="#000000">class = Positive</text>
</g>
<!-- 2&#45;&gt;4 -->
<g id="edge4" class="edge">
<title>2&#45;&gt;4</title>
<path fill="none" stroke="#000000" d="M244.3176,-1006.9891C244.3176,-998.7417 244.3176,-990.0661 244.3176,-981.5724"/>
<polygon fill="#000000" stroke="#000000" points="247.8177,-981.3431 244.3176,-971.3431 240.8177,-981.3431 247.8177,-981.3431"/>
</g>
<!-- 5 -->
<g id="node6" class="node">
<title>5</title>
<polygon fill="none" stroke="#000000" points="174.4534,-834.9003 66.1818,-834.9003 66.1818,-759.4997 174.4534,-759.4997 174.4534,-834.9003"/>
<text text-anchor="middle" x="120.3176" y="-818.2" font-family="Times,serif" font-size="14.00" fill="#000000">gini = 0.0</text>
<text text-anchor="middle" x="120.3176" y="-801.4" font-family="Times,serif" font-size="14.00" fill="#000000">samples = 5</text>
<text text-anchor="middle" x="120.3176" y="-784.6" font-family="Times,serif" font-size="14.00" fill="#000000">value = [5, 0]</text>
<text text-anchor="middle" x="120.3176" y="-767.8" font-family="Times,serif" font-size="14.00" fill="#000000">class = Negative</text>
</g>
<!-- 4&#45;&gt;5 -->
<g id="edge5" class="edge">
<title>4&#45;&gt;5</title>
<path fill="none" stroke="#000000" d="M199.5508,-878.9891C187.9462,-867.0101 175.4666,-854.128 163.9226,-842.2116"/>
<polygon fill="#000000" stroke="#000000" points="166.3438,-839.6806 156.8719,-834.9335 161.3161,-844.5512 166.3438,-839.6806"/>
</g>
<!-- 6 -->
<g id="node7" class="node">
<title>6</title>
<polygon fill="none" stroke="#000000" points="296.035,-843.2 192.6002,-843.2 192.6002,-751.2 296.035,-751.2 296.035,-843.2"/>
<text text-anchor="middle" x="244.3176" y="-826.6" font-family="Times,serif" font-size="14.00" fill="#000000">나이 &lt;= 60.0</text>
<text text-anchor="middle" x="244.3176" y="-809.8" font-family="Times,serif" font-size="14.00" fill="#000000">gini = 0.26</text>
<text text-anchor="middle" x="244.3176" y="-793" font-family="Times,serif" font-size="14.00" fill="#000000">samples = 13</text>
<text text-anchor="middle" x="244.3176" y="-776.2" font-family="Times,serif" font-size="14.00" fill="#000000">value = [2, 11]</text>
<text text-anchor="middle" x="244.3176" y="-759.4" font-family="Times,serif" font-size="14.00" fill="#000000">class = Positive</text>
</g>
<!-- 4&#45;&gt;6 -->
<g id="edge6" class="edge">
<title>4&#45;&gt;6</title>
<path fill="none" stroke="#000000" d="M244.3176,-878.9891C244.3176,-870.7417 244.3176,-862.0661 244.3176,-853.5724"/>
<polygon fill="#000000" stroke="#000000" points="247.8177,-853.3431 244.3176,-843.3431 240.8177,-853.3431 247.8177,-853.3431"/>
</g>
<!-- 7 -->
<g id="node8" class="node">
<title>7</title>
<polygon fill="none" stroke="#000000" points="183.035,-706.9003 79.6002,-706.9003 79.6002,-631.4997 183.035,-631.4997 183.035,-706.9003"/>
<text text-anchor="middle" x="131.3176" y="-690.2" font-family="Times,serif" font-size="14.00" fill="#000000">gini = 0.0</text>
<text text-anchor="middle" x="131.3176" y="-673.4" font-family="Times,serif" font-size="14.00" fill="#000000">samples = 10</text>
<text text-anchor="middle" x="131.3176" y="-656.6" font-family="Times,serif" font-size="14.00" fill="#000000">value = [0, 10]</text>
<text text-anchor="middle" x="131.3176" y="-639.8" font-family="Times,serif" font-size="14.00" fill="#000000">class = Positive</text>
</g>
<!-- 6&#45;&gt;7 -->
<g id="edge7" class="edge">
<title>6&#45;&gt;7</title>
<path fill="none" stroke="#000000" d="M203.522,-750.9891C193.0466,-739.1231 181.7889,-726.371 171.3524,-714.5492"/>
<polygon fill="#000000" stroke="#000000" points="173.8712,-712.1138 164.6292,-706.9335 168.6235,-716.7466 173.8712,-712.1138"/>
</g>
<!-- 8 -->
<g id="node9" class="node">
<title>8</title>
<polygon fill="none" stroke="#000000" points="309.4534,-715.2 201.1818,-715.2 201.1818,-623.2 309.4534,-623.2 309.4534,-715.2"/>
<text text-anchor="middle" x="255.3176" y="-698.6" font-family="Times,serif" font-size="14.00" fill="#000000">성별 &lt;= 0.5</text>
<text text-anchor="middle" x="255.3176" y="-681.8" font-family="Times,serif" font-size="14.00" fill="#000000">gini = 0.444</text>
<text text-anchor="middle" x="255.3176" y="-665" font-family="Times,serif" font-size="14.00" fill="#000000">samples = 3</text>
<text text-anchor="middle" x="255.3176" y="-648.2" font-family="Times,serif" font-size="14.00" fill="#000000">value = [2, 1]</text>
<text text-anchor="middle" x="255.3176" y="-631.4" font-family="Times,serif" font-size="14.00" fill="#000000">class = Negative</text>
</g>
<!-- 6&#45;&gt;8 -->
<g id="edge8" class="edge">
<title>6&#45;&gt;8</title>
<path fill="none" stroke="#000000" d="M248.2889,-750.9891C248.9976,-742.7417 249.7432,-734.0661 250.4731,-725.5724"/>
<polygon fill="#000000" stroke="#000000" points="253.983,-725.6061 251.3522,-715.3431 247.0087,-725.0067 253.983,-725.6061"/>
</g>
<!-- 9 -->
<g id="node10" class="node">
<title>9</title>
<polygon fill="none" stroke="#000000" points="191.4534,-578.9003 83.1818,-578.9003 83.1818,-503.4997 191.4534,-503.4997 191.4534,-578.9003"/>
<text text-anchor="middle" x="137.3176" y="-562.2" font-family="Times,serif" font-size="14.00" fill="#000000">gini = 0.0</text>
<text text-anchor="middle" x="137.3176" y="-545.4" font-family="Times,serif" font-size="14.00" fill="#000000">samples = 2</text>
<text text-anchor="middle" x="137.3176" y="-528.6" font-family="Times,serif" font-size="14.00" fill="#000000">value = [2, 0]</text>
<text text-anchor="middle" x="137.3176" y="-511.8" font-family="Times,serif" font-size="14.00" fill="#000000">class = Negative</text>
</g>
<!-- 8&#45;&gt;9 -->
<g id="edge9" class="edge">
<title>8&#45;&gt;9</title>
<path fill="none" stroke="#000000" d="M212.7169,-622.9891C201.778,-611.1231 190.0221,-598.371 179.1238,-586.5492"/>
<polygon fill="#000000" stroke="#000000" points="181.4546,-583.9136 172.1032,-578.9335 176.3079,-588.6583 181.4546,-583.9136"/>
</g>
<!-- 10 -->
<g id="node11" class="node">
<title>10</title>
<polygon fill="none" stroke="#000000" points="313.035,-578.9003 209.6002,-578.9003 209.6002,-503.4997 313.035,-503.4997 313.035,-578.9003"/>
<text text-anchor="middle" x="261.3176" y="-562.2" font-family="Times,serif" font-size="14.00" fill="#000000">gini = 0.0</text>
<text text-anchor="middle" x="261.3176" y="-545.4" font-family="Times,serif" font-size="14.00" fill="#000000">samples = 1</text>
<text text-anchor="middle" x="261.3176" y="-528.6" font-family="Times,serif" font-size="14.00" fill="#000000">value = [0, 1]</text>
<text text-anchor="middle" x="261.3176" y="-511.8" font-family="Times,serif" font-size="14.00" fill="#000000">class = Positive</text>
</g>
<!-- 8&#45;&gt;10 -->
<g id="edge10" class="edge">
<title>8&#45;&gt;10</title>
<path fill="none" stroke="#000000" d="M257.4837,-622.9891C258.0029,-611.9142 258.5582,-600.0674 259.0805,-588.9254"/>
<polygon fill="#000000" stroke="#000000" points="262.5767,-589.0864 259.5488,-578.9335 255.5843,-588.7586 262.5767,-589.0864"/>
</g>
<!-- 12 -->
<g id="node13" class="node">
<title>12</title>
<polygon fill="none" stroke="#000000" points="536.5517,-971.2 398.0835,-971.2 398.0835,-879.2 536.5517,-879.2 536.5517,-971.2"/>
<text text-anchor="middle" x="467.3176" y="-954.6" font-family="Times,serif" font-size="14.00" fill="#000000">가슴 통증 유형 &lt;= 0.5</text>
<text text-anchor="middle" x="467.3176" y="-937.8" font-family="Times,serif" font-size="14.00" fill="#000000">gini = 0.239</text>
<text text-anchor="middle" x="467.3176" y="-921" font-family="Times,serif" font-size="14.00" fill="#000000">samples = 36</text>
<text text-anchor="middle" x="467.3176" y="-904.2" font-family="Times,serif" font-size="14.00" fill="#000000">value = [5, 31]</text>
<text text-anchor="middle" x="467.3176" y="-887.4" font-family="Times,serif" font-size="14.00" fill="#000000">class = Positive</text>
</g>
<!-- 11&#45;&gt;12 -->
<g id="edge12" class="edge">
<title>11&#45;&gt;12</title>
<path fill="none" stroke="#000000" d="M513.9629,-1006.9891C509.0009,-998.2885 503.7671,-989.1115 498.67,-980.1741"/>
<polygon fill="#000000" stroke="#000000" points="501.628,-978.2958 493.6336,-971.3431 495.5474,-981.7637 501.628,-978.2958"/>
</g>
<!-- 29 -->
<g id="node30" class="node">
<title>29</title>
<polygon fill="none" stroke="#000000" points="805.9771,-971.2 554.6581,-971.2 554.6581,-879.2 805.9771,-879.2 805.9771,-971.2"/>
<text text-anchor="middle" x="680.3176" y="-954.6" font-family="Times,serif" font-size="14.00" fill="#000000">형광 투시된 주요 혈관의 수 (0&#45;3) &lt;= 2.5</text>
<text text-anchor="middle" x="680.3176" y="-937.8" font-family="Times,serif" font-size="14.00" fill="#000000">gini = 0.375</text>
<text text-anchor="middle" x="680.3176" y="-921" font-family="Times,serif" font-size="14.00" fill="#000000">samples = 4</text>
<text text-anchor="middle" x="680.3176" y="-904.2" font-family="Times,serif" font-size="14.00" fill="#000000">value = [3, 1]</text>
<text text-anchor="middle" x="680.3176" y="-887.4" font-family="Times,serif" font-size="14.00" fill="#000000">class = Negative</text>
</g>
<!-- 11&#45;&gt;29 -->
<g id="edge29" class="edge">
<title>11&#45;&gt;29</title>
<path fill="none" stroke="#000000" d="M590.8608,-1006.9891C601.0709,-997.6541 611.881,-987.7706 622.3235,-978.2231"/>
<polygon fill="#000000" stroke="#000000" points="624.83,-980.6739 629.8486,-971.3431 620.1066,-975.5077 624.83,-980.6739"/>
</g>
<!-- 13 -->
<g id="node14" class="node">
<title>13</title>
<polygon fill="none" stroke="#000000" points="422.4534,-834.9003 314.1818,-834.9003 314.1818,-759.4997 422.4534,-759.4997 422.4534,-834.9003"/>
<text text-anchor="middle" x="368.3176" y="-818.2" font-family="Times,serif" font-size="14.00" fill="#000000">gini = 0.0</text>
<text text-anchor="middle" x="368.3176" y="-801.4" font-family="Times,serif" font-size="14.00" fill="#000000">samples = 1</text>
<text text-anchor="middle" x="368.3176" y="-784.6" font-family="Times,serif" font-size="14.00" fill="#000000">value = [1, 0]</text>
<text text-anchor="middle" x="368.3176" y="-767.8" font-family="Times,serif" font-size="14.00" fill="#000000">class = Negative</text>
</g>
<!-- 12&#45;&gt;13 -->
<g id="edge13" class="edge">
<title>12&#45;&gt;13</title>
<path fill="none" stroke="#000000" d="M431.5763,-878.9891C422.4862,-867.2362 412.7236,-854.6138 403.6538,-842.8872"/>
<polygon fill="#000000" stroke="#000000" points="406.3887,-840.7023 397.5021,-834.9335 400.8516,-844.985 406.3887,-840.7023"/>
</g>
<!-- 14 -->
<g id="node15" class="node">
<title>14</title>
<polygon fill="none" stroke="#000000" points="608.3165,-843.2 440.3187,-843.2 440.3187,-751.2 608.3165,-751.2 608.3165,-843.2"/>
<text text-anchor="middle" x="524.3176" y="-826.6" font-family="Times,serif" font-size="14.00" fill="#000000">안정 혈압 (mmHg) &lt;= 131.0</text>
<text text-anchor="middle" x="524.3176" y="-809.8" font-family="Times,serif" font-size="14.00" fill="#000000">gini = 0.202</text>
<text text-anchor="middle" x="524.3176" y="-793" font-family="Times,serif" font-size="14.00" fill="#000000">samples = 35</text>
<text text-anchor="middle" x="524.3176" y="-776.2" font-family="Times,serif" font-size="14.00" fill="#000000">value = [4, 31]</text>
<text text-anchor="middle" x="524.3176" y="-759.4" font-family="Times,serif" font-size="14.00" fill="#000000">class = Positive</text>
</g>
<!-- 12&#45;&gt;14 -->
<g id="edge14" class="edge">
<title>12&#45;&gt;14</title>
<path fill="none" stroke="#000000" d="M487.8959,-878.9891C491.6897,-870.4698 495.6868,-861.4937 499.5881,-852.733"/>
<polygon fill="#000000" stroke="#000000" points="502.8987,-853.9021 503.7695,-843.3431 496.5041,-851.0545 502.8987,-853.9021"/>
</g>
<!-- 15 -->
<g id="node16" class="node">
<title>15</title>
<polygon fill="none" stroke="#000000" points="619.434,-715.2 383.2012,-715.2 383.2012,-623.2 619.434,-623.2 619.434,-715.2"/>
<text text-anchor="middle" x="501.3176" y="-698.6" font-family="Times,serif" font-size="14.00" fill="#000000">운동에 의해 유발된 ST Depression &lt;= 2.3</text>
<text text-anchor="middle" x="501.3176" y="-681.8" font-family="Times,serif" font-size="14.00" fill="#000000">gini = 0.298</text>
<text text-anchor="middle" x="501.3176" y="-665" font-family="Times,serif" font-size="14.00" fill="#000000">samples = 22</text>
<text text-anchor="middle" x="501.3176" y="-648.2" font-family="Times,serif" font-size="14.00" fill="#000000">value = [4, 18]</text>
<text text-anchor="middle" x="501.3176" y="-631.4" font-family="Times,serif" font-size="14.00" fill="#000000">class = Positive</text>
</g>
<!-- 14&#45;&gt;15 -->
<g id="edge15" class="edge">
<title>14&#45;&gt;15</title>
<path fill="none" stroke="#000000" d="M516.0141,-750.9891C514.5158,-742.651 512.939,-733.8754 511.3967,-725.2925"/>
<polygon fill="#000000" stroke="#000000" points="514.8224,-724.5665 509.6089,-715.3431 507.9327,-725.8045 514.8224,-724.5665"/>
</g>
<!-- 28 -->
<g id="node29" class="node">
<title>28</title>
<polygon fill="none" stroke="#000000" points="741.035,-706.9003 637.6002,-706.9003 637.6002,-631.4997 741.035,-631.4997 741.035,-706.9003"/>
<text text-anchor="middle" x="689.3176" y="-690.2" font-family="Times,serif" font-size="14.00" fill="#000000">gini = 0.0</text>
<text text-anchor="middle" x="689.3176" y="-673.4" font-family="Times,serif" font-size="14.00" fill="#000000">samples = 13</text>
<text text-anchor="middle" x="689.3176" y="-656.6" font-family="Times,serif" font-size="14.00" fill="#000000">value = [0, 13]</text>
<text text-anchor="middle" x="689.3176" y="-639.8" font-family="Times,serif" font-size="14.00" fill="#000000">class = Positive</text>
</g>
<!-- 14&#45;&gt;28 -->
<g id="edge28" class="edge">
<title>14&#45;&gt;28</title>
<path fill="none" stroke="#000000" d="M583.8864,-750.9891C599.765,-738.6711 616.8747,-725.3981 632.596,-713.2022"/>
<polygon fill="#000000" stroke="#000000" points="634.9208,-715.8284 640.6768,-706.9335 630.6302,-710.2975 634.9208,-715.8284"/>
</g>
<!-- 16 -->
<g id="node17" class="node">
<title>16</title>
<polygon fill="none" stroke="#000000" points="613.434,-587.2 377.2012,-587.2 377.2012,-495.2 613.434,-495.2 613.434,-587.2"/>
<text text-anchor="middle" x="495.3176" y="-570.6" font-family="Times,serif" font-size="14.00" fill="#000000">운동에 의해 유발된 ST Depression &lt;= 2.1</text>
<text text-anchor="middle" x="495.3176" y="-553.8" font-family="Times,serif" font-size="14.00" fill="#000000">gini = 0.391</text>
<text text-anchor="middle" x="495.3176" y="-537" font-family="Times,serif" font-size="14.00" fill="#000000">samples = 15</text>
<text text-anchor="middle" x="495.3176" y="-520.2" font-family="Times,serif" font-size="14.00" fill="#000000">value = [4, 11]</text>
<text text-anchor="middle" x="495.3176" y="-503.4" font-family="Times,serif" font-size="14.00" fill="#000000">class = Positive</text>
</g>
<!-- 15&#45;&gt;16 -->
<g id="edge16" class="edge">
<title>15&#45;&gt;16</title>
<path fill="none" stroke="#000000" d="M499.1515,-622.9891C498.7649,-614.7417 498.3582,-606.0661 497.9601,-597.5724"/>
<polygon fill="#000000" stroke="#000000" points="501.445,-597.1682 497.4806,-587.3431 494.4527,-597.4961 501.445,-597.1682"/>
</g>
<!-- 27 -->
<g id="node28" class="node">
<title>27</title>
<polygon fill="none" stroke="#000000" points="735.035,-578.9003 631.6002,-578.9003 631.6002,-503.4997 735.035,-503.4997 735.035,-578.9003"/>
<text text-anchor="middle" x="683.3176" y="-562.2" font-family="Times,serif" font-size="14.00" fill="#000000">gini = 0.0</text>
<text text-anchor="middle" x="683.3176" y="-545.4" font-family="Times,serif" font-size="14.00" fill="#000000">samples = 7</text>
<text text-anchor="middle" x="683.3176" y="-528.6" font-family="Times,serif" font-size="14.00" fill="#000000">value = [0, 7]</text>
<text text-anchor="middle" x="683.3176" y="-511.8" font-family="Times,serif" font-size="14.00" fill="#000000">class = Positive</text>
</g>
<!-- 15&#45;&gt;27 -->
<g id="edge27" class="edge">
<title>15&#45;&gt;27</title>
<path fill="none" stroke="#000000" d="M570.5216,-623.1803C587.5713,-611.6017 605.7019,-599.0836 622.3176,-587.2 623.3796,-586.4405 624.4501,-585.6713 625.527,-584.8944"/>
<polygon fill="#000000" stroke="#000000" points="627.8468,-587.5347 633.8688,-578.8177 623.7251,-581.8768 627.8468,-587.5347"/>
</g>
<!-- 17 -->
<g id="node18" class="node">
<title>17</title>
<polygon fill="none" stroke="#000000" points="497.5508,-459.2 343.0844,-459.2 343.0844,-367.2 497.5508,-367.2 497.5508,-459.2"/>
<text text-anchor="middle" x="420.3176" y="-442.6" font-family="Times,serif" font-size="14.00" fill="#000000">심장 결함 종류 &lt;= 3.5</text>
<text text-anchor="middle" x="420.3176" y="-425.8" font-family="Times,serif" font-size="14.00" fill="#000000">gini = 0.337</text>
<text text-anchor="middle" x="420.3176" y="-409" font-family="Times,serif" font-size="14.00" fill="#000000">samples = 14</text>
<text text-anchor="middle" x="420.3176" y="-392.2" font-family="Times,serif" font-size="14.00" fill="#000000">value = [3, 11]</text>
<text text-anchor="middle" x="420.3176" y="-375.4" font-family="Times,serif" font-size="14.00" fill="#000000">class = Positive</text>
</g>
<!-- 16&#45;&gt;17 -->
<g id="edge17" class="edge">
<title>16&#45;&gt;17</title>
<path fill="none" stroke="#000000" d="M468.2409,-494.9891C463.1429,-486.2885 457.7657,-477.1115 452.529,-468.1741"/>
<polygon fill="#000000" stroke="#000000" points="455.4299,-466.2017 447.3546,-459.3431 449.3903,-469.7405 455.4299,-466.2017"/>
</g>
<!-- 26 -->
<g id="node27" class="node">
<title>26</title>
<polygon fill="none" stroke="#000000" points="624.4534,-450.9003 516.1818,-450.9003 516.1818,-375.4997 624.4534,-375.4997 624.4534,-450.9003"/>
<text text-anchor="middle" x="570.3176" y="-434.2" font-family="Times,serif" font-size="14.00" fill="#000000">gini = 0.0</text>
<text text-anchor="middle" x="570.3176" y="-417.4" font-family="Times,serif" font-size="14.00" fill="#000000">samples = 1</text>
<text text-anchor="middle" x="570.3176" y="-400.6" font-family="Times,serif" font-size="14.00" fill="#000000">value = [1, 0]</text>
<text text-anchor="middle" x="570.3176" y="-383.8" font-family="Times,serif" font-size="14.00" fill="#000000">class = Negative</text>
</g>
<!-- 16&#45;&gt;26 -->
<g id="edge26" class="edge">
<title>16&#45;&gt;26</title>
<path fill="none" stroke="#000000" d="M522.3943,-494.9891C529.1484,-483.4622 536.3924,-471.099 543.1508,-459.5647"/>
<polygon fill="#000000" stroke="#000000" points="546.1724,-461.3309 548.2081,-450.9335 540.1328,-457.7921 546.1724,-461.3309"/>
</g>
<!-- 18 -->
<g id="node19" class="node">
<title>18</title>
<polygon fill="none" stroke="#000000" points="435.434,-331.2 199.2012,-331.2 199.2012,-239.2 435.434,-239.2 435.434,-331.2"/>
<text text-anchor="middle" x="317.3176" y="-314.6" font-family="Times,serif" font-size="14.00" fill="#000000">운동에 의해 유발된 ST Depression &lt;= 0.9</text>
<text text-anchor="middle" x="317.3176" y="-297.8" font-family="Times,serif" font-size="14.00" fill="#000000">gini = 0.5</text>
<text text-anchor="middle" x="317.3176" y="-281" font-family="Times,serif" font-size="14.00" fill="#000000">samples = 4</text>
<text text-anchor="middle" x="317.3176" y="-264.2" font-family="Times,serif" font-size="14.00" fill="#000000">value = [2, 2]</text>
<text text-anchor="middle" x="317.3176" y="-247.4" font-family="Times,serif" font-size="14.00" fill="#000000">class = Negative</text>
</g>
<!-- 17&#45;&gt;18 -->
<g id="edge18" class="edge">
<title>17&#45;&gt;18</title>
<path fill="none" stroke="#000000" d="M383.1322,-366.9891C375.9122,-358.0166 368.2845,-348.5375 360.8809,-339.3369"/>
<polygon fill="#000000" stroke="#000000" points="363.4444,-336.9397 354.4484,-331.3431 357.9908,-341.3282 363.4444,-336.9397"/>
</g>
<!-- 21 -->
<g id="node22" class="node">
<title>21</title>
<polygon fill="none" stroke="#000000" points="593.784,-331.2 452.8512,-331.2 452.8512,-239.2 593.784,-239.2 593.784,-331.2"/>
<text text-anchor="middle" x="523.3176" y="-314.6" font-family="Times,serif" font-size="14.00" fill="#000000">최대 심박동수 &lt;= 101.0</text>
<text text-anchor="middle" x="523.3176" y="-297.8" font-family="Times,serif" font-size="14.00" fill="#000000">gini = 0.18</text>
<text text-anchor="middle" x="523.3176" y="-281" font-family="Times,serif" font-size="14.00" fill="#000000">samples = 10</text>
<text text-anchor="middle" x="523.3176" y="-264.2" font-family="Times,serif" font-size="14.00" fill="#000000">value = [1, 9]</text>
<text text-anchor="middle" x="523.3176" y="-247.4" font-family="Times,serif" font-size="14.00" fill="#000000">class = Positive</text>
</g>
<!-- 17&#45;&gt;21 -->
<g id="edge21" class="edge">
<title>17&#45;&gt;21</title>
<path fill="none" stroke="#000000" d="M457.503,-366.9891C464.723,-358.0166 472.3507,-348.5375 479.7543,-339.3369"/>
<polygon fill="#000000" stroke="#000000" points="482.6444,-341.3282 486.1868,-331.3431 477.1908,-336.9397 482.6444,-341.3282"/>
</g>
<!-- 19 -->
<g id="node20" class="node">
<title>19</title>
<polygon fill="none" stroke="#000000" points="258.035,-194.9003 154.6002,-194.9003 154.6002,-119.4997 258.035,-119.4997 258.035,-194.9003"/>
<text text-anchor="middle" x="206.3176" y="-178.2" font-family="Times,serif" font-size="14.00" fill="#000000">gini = 0.0</text>
<text text-anchor="middle" x="206.3176" y="-161.4" font-family="Times,serif" font-size="14.00" fill="#000000">samples = 2</text>
<text text-anchor="middle" x="206.3176" y="-144.6" font-family="Times,serif" font-size="14.00" fill="#000000">value = [0, 2]</text>
<text text-anchor="middle" x="206.3176" y="-127.8" font-family="Times,serif" font-size="14.00" fill="#000000">class = Positive</text>
</g>
<!-- 18&#45;&gt;19 -->
<g id="edge19" class="edge">
<title>18&#45;&gt;19</title>
<path fill="none" stroke="#000000" d="M277.2441,-238.9891C266.9541,-227.1231 255.8956,-214.371 245.6438,-202.5492"/>
<polygon fill="#000000" stroke="#000000" points="248.2354,-200.1954 239.0396,-194.9335 242.947,-204.7815 248.2354,-200.1954"/>
</g>
<!-- 20 -->
<g id="node21" class="node">
<title>20</title>
<polygon fill="none" stroke="#000000" points="384.4534,-194.9003 276.1818,-194.9003 276.1818,-119.4997 384.4534,-119.4997 384.4534,-194.9003"/>
<text text-anchor="middle" x="330.3176" y="-178.2" font-family="Times,serif" font-size="14.00" fill="#000000">gini = 0.0</text>
<text text-anchor="middle" x="330.3176" y="-161.4" font-family="Times,serif" font-size="14.00" fill="#000000">samples = 2</text>
<text text-anchor="middle" x="330.3176" y="-144.6" font-family="Times,serif" font-size="14.00" fill="#000000">value = [2, 0]</text>
<text text-anchor="middle" x="330.3176" y="-127.8" font-family="Times,serif" font-size="14.00" fill="#000000">class = Negative</text>
</g>
<!-- 18&#45;&gt;20 -->
<g id="edge20" class="edge">
<title>18&#45;&gt;20</title>
<path fill="none" stroke="#000000" d="M322.0109,-238.9891C323.1357,-227.9142 324.3389,-216.0674 325.4705,-204.9254"/>
<polygon fill="#000000" stroke="#000000" points="328.9569,-205.236 326.4853,-194.9335 321.9927,-204.5286 328.9569,-205.236"/>
</g>
<!-- 22 -->
<g id="node23" class="node">
<title>22</title>
<polygon fill="none" stroke="#000000" points="595.3165,-203.2 427.3187,-203.2 427.3187,-111.2 595.3165,-111.2 595.3165,-203.2"/>
<text text-anchor="middle" x="511.3176" y="-186.6" font-family="Times,serif" font-size="14.00" fill="#000000">안정 혈압 (mmHg) &lt;= 121.5</text>
<text text-anchor="middle" x="511.3176" y="-169.8" font-family="Times,serif" font-size="14.00" fill="#000000">gini = 0.444</text>
<text text-anchor="middle" x="511.3176" y="-153" font-family="Times,serif" font-size="14.00" fill="#000000">samples = 3</text>
<text text-anchor="middle" x="511.3176" y="-136.2" font-family="Times,serif" font-size="14.00" fill="#000000">value = [1, 2]</text>
<text text-anchor="middle" x="511.3176" y="-119.4" font-family="Times,serif" font-size="14.00" fill="#000000">class = Positive</text>
</g>
<!-- 21&#45;&gt;22 -->
<g id="edge22" class="edge">
<title>21&#45;&gt;22</title>
<path fill="none" stroke="#000000" d="M518.9853,-238.9891C518.2121,-230.7417 517.3988,-222.0661 516.6025,-213.5724"/>
<polygon fill="#000000" stroke="#000000" points="520.0617,-212.9727 515.6435,-203.3431 513.0923,-213.6262 520.0617,-212.9727"/>
</g>
<!-- 25 -->
<g id="node26" class="node">
<title>25</title>
<polygon fill="none" stroke="#000000" points="716.035,-194.9003 612.6002,-194.9003 612.6002,-119.4997 716.035,-119.4997 716.035,-194.9003"/>
<text text-anchor="middle" x="664.3176" y="-178.2" font-family="Times,serif" font-size="14.00" fill="#000000">gini = 0.0</text>
<text text-anchor="middle" x="664.3176" y="-161.4" font-family="Times,serif" font-size="14.00" fill="#000000">samples = 7</text>
<text text-anchor="middle" x="664.3176" y="-144.6" font-family="Times,serif" font-size="14.00" fill="#000000">value = [0, 7]</text>
<text text-anchor="middle" x="664.3176" y="-127.8" font-family="Times,serif" font-size="14.00" fill="#000000">class = Positive</text>
</g>
<!-- 21&#45;&gt;25 -->
<g id="edge25" class="edge">
<title>21&#45;&gt;25</title>
<path fill="none" stroke="#000000" d="M574.2218,-238.9891C587.5419,-226.8971 601.8756,-213.8849 615.1057,-201.8746"/>
<polygon fill="#000000" stroke="#000000" points="617.7002,-204.2465 622.7518,-194.9335 612.9951,-199.0636 617.7002,-204.2465"/>
</g>
<!-- 23 -->
<g id="node24" class="node">
<title>23</title>
<polygon fill="none" stroke="#000000" points="503.4534,-75.3003 395.1818,-75.3003 395.1818,.1003 503.4534,.1003 503.4534,-75.3003"/>
<text text-anchor="middle" x="449.3176" y="-58.6" font-family="Times,serif" font-size="14.00" fill="#000000">gini = 0.0</text>
<text text-anchor="middle" x="449.3176" y="-41.8" font-family="Times,serif" font-size="14.00" fill="#000000">samples = 1</text>
<text text-anchor="middle" x="449.3176" y="-25" font-family="Times,serif" font-size="14.00" fill="#000000">value = [1, 0]</text>
<text text-anchor="middle" x="449.3176" y="-8.2" font-family="Times,serif" font-size="14.00" fill="#000000">class = Negative</text>
</g>
<!-- 22&#45;&gt;23 -->
<g id="edge23" class="edge">
<title>22&#45;&gt;23</title>
<path fill="none" stroke="#000000" d="M487.3468,-110.9595C482.7945,-102.178 478.0287,-92.9846 473.4708,-84.1922"/>
<polygon fill="#000000" stroke="#000000" points="476.5235,-82.476 468.8138,-75.2088 470.3089,-85.6977 476.5235,-82.476"/>
</g>
<!-- 24 -->
<g id="node25" class="node">
<title>24</title>
<polygon fill="none" stroke="#000000" points="625.035,-75.3003 521.6002,-75.3003 521.6002,.1003 625.035,.1003 625.035,-75.3003"/>
<text text-anchor="middle" x="573.3176" y="-58.6" font-family="Times,serif" font-size="14.00" fill="#000000">gini = 0.0</text>
<text text-anchor="middle" x="573.3176" y="-41.8" font-family="Times,serif" font-size="14.00" fill="#000000">samples = 2</text>
<text text-anchor="middle" x="573.3176" y="-25" font-family="Times,serif" font-size="14.00" fill="#000000">value = [0, 2]</text>
<text text-anchor="middle" x="573.3176" y="-8.2" font-family="Times,serif" font-size="14.00" fill="#000000">class = Positive</text>
</g>
<!-- 22&#45;&gt;24 -->
<g id="edge24" class="edge">
<title>22&#45;&gt;24</title>
<path fill="none" stroke="#000000" d="M535.2884,-110.9595C539.8407,-102.178 544.6065,-92.9846 549.1644,-84.1922"/>
<polygon fill="#000000" stroke="#000000" points="552.3263,-85.6977 553.8214,-75.2088 546.1117,-82.476 552.3263,-85.6977"/>
</g>
<!-- 30 -->
<g id="node31" class="node">
<title>30</title>
<polygon fill="none" stroke="#000000" points="734.4534,-834.9003 626.1818,-834.9003 626.1818,-759.4997 734.4534,-759.4997 734.4534,-834.9003"/>
<text text-anchor="middle" x="680.3176" y="-818.2" font-family="Times,serif" font-size="14.00" fill="#000000">gini = 0.0</text>
<text text-anchor="middle" x="680.3176" y="-801.4" font-family="Times,serif" font-size="14.00" fill="#000000">samples = 3</text>
<text text-anchor="middle" x="680.3176" y="-784.6" font-family="Times,serif" font-size="14.00" fill="#000000">value = [3, 0]</text>
<text text-anchor="middle" x="680.3176" y="-767.8" font-family="Times,serif" font-size="14.00" fill="#000000">class = Negative</text>
</g>
<!-- 29&#45;&gt;30 -->
<g id="edge30" class="edge">
<title>29&#45;&gt;30</title>
<path fill="none" stroke="#000000" d="M680.3176,-878.9891C680.3176,-868.0272 680.3176,-856.309 680.3176,-845.2667"/>
<polygon fill="#000000" stroke="#000000" points="683.8177,-844.9335 680.3176,-834.9335 676.8177,-844.9335 683.8177,-844.9335"/>
</g>
<!-- 31 -->
<g id="node32" class="node">
<title>31</title>
<polygon fill="none" stroke="#000000" points="856.035,-834.9003 752.6002,-834.9003 752.6002,-759.4997 856.035,-759.4997 856.035,-834.9003"/>
<text text-anchor="middle" x="804.3176" y="-818.2" font-family="Times,serif" font-size="14.00" fill="#000000">gini = 0.0</text>
<text text-anchor="middle" x="804.3176" y="-801.4" font-family="Times,serif" font-size="14.00" fill="#000000">samples = 1</text>
<text text-anchor="middle" x="804.3176" y="-784.6" font-family="Times,serif" font-size="14.00" fill="#000000">value = [0, 1]</text>
<text text-anchor="middle" x="804.3176" y="-767.8" font-family="Times,serif" font-size="14.00" fill="#000000">class = Positive</text>
</g>
<!-- 29&#45;&gt;31 -->
<g id="edge31" class="edge">
<title>29&#45;&gt;31</title>
<path fill="none" stroke="#000000" d="M725.0844,-878.9891C736.689,-867.0101 749.1686,-854.128 760.7126,-842.2116"/>
<polygon fill="#000000" stroke="#000000" points="763.3191,-844.5512 767.7633,-834.9335 758.2914,-839.6806 763.3191,-844.5512"/>
</g>
<!-- 33 -->
<g id="node34" class="node">
<title>33</title>
<polygon fill="none" stroke="#000000" points="955.5508,-1099.2 801.0844,-1099.2 801.0844,-1007.2 955.5508,-1007.2 955.5508,-1099.2"/>
<text text-anchor="middle" x="878.3176" y="-1082.6" font-family="Times,serif" font-size="14.00" fill="#000000">심장 결함 종류 &lt;= 3.5</text>
<text text-anchor="middle" x="878.3176" y="-1065.8" font-family="Times,serif" font-size="14.00" fill="#000000">gini = 0.121</text>
<text text-anchor="middle" x="878.3176" y="-1049" font-family="Times,serif" font-size="14.00" fill="#000000">samples = 77</text>
<text text-anchor="middle" x="878.3176" y="-1032.2" font-family="Times,serif" font-size="14.00" fill="#000000">value = [72, 5]</text>
<text text-anchor="middle" x="878.3176" y="-1015.4" font-family="Times,serif" font-size="14.00" fill="#000000">class = Negative</text>
</g>
<!-- 32&#45;&gt;33 -->
<g id="edge33" class="edge">
<title>32&#45;&gt;33</title>
<path fill="none" stroke="#000000" d="M878.3176,-1134.9891C878.3176,-1126.7417 878.3176,-1118.0661 878.3176,-1109.5724"/>
<polygon fill="#000000" stroke="#000000" points="881.8177,-1109.3431 878.3176,-1099.3431 874.8177,-1109.3431 881.8177,-1109.3431"/>
</g>
<!-- 40 -->
<g id="node41" class="node">
<title>40</title>
<polygon fill="none" stroke="#000000" points="1077.035,-1090.9003 973.6002,-1090.9003 973.6002,-1015.4997 1077.035,-1015.4997 1077.035,-1090.9003"/>
<text text-anchor="middle" x="1025.3176" y="-1074.2" font-family="Times,serif" font-size="14.00" fill="#000000">gini = 0.0</text>
<text text-anchor="middle" x="1025.3176" y="-1057.4" font-family="Times,serif" font-size="14.00" fill="#000000">samples = 3</text>
<text text-anchor="middle" x="1025.3176" y="-1040.6" font-family="Times,serif" font-size="14.00" fill="#000000">value = [0, 3]</text>
<text text-anchor="middle" x="1025.3176" y="-1023.8" font-family="Times,serif" font-size="14.00" fill="#000000">class = Positive</text>
</g>
<!-- 32&#45;&gt;40 -->
<g id="edge40" class="edge">
<title>32&#45;&gt;40</title>
<path fill="none" stroke="#000000" d="M931.388,-1134.9891C945.4046,-1122.7841 960.498,-1109.6416 974.398,-1097.5382"/>
<polygon fill="#000000" stroke="#000000" points="976.7398,-1100.14 981.983,-1090.9335 972.143,-1094.8608 976.7398,-1100.14"/>
</g>
<!-- 34 -->
<g id="node35" class="node">
<title>34</title>
<polygon fill="none" stroke="#000000" points="932.4534,-962.9003 824.1818,-962.9003 824.1818,-887.4997 932.4534,-887.4997 932.4534,-962.9003"/>
<text text-anchor="middle" x="878.3176" y="-946.2" font-family="Times,serif" font-size="14.00" fill="#000000">gini = 0.0</text>
<text text-anchor="middle" x="878.3176" y="-929.4" font-family="Times,serif" font-size="14.00" fill="#000000">samples = 57</text>
<text text-anchor="middle" x="878.3176" y="-912.6" font-family="Times,serif" font-size="14.00" fill="#000000">value = [57, 0]</text>
<text text-anchor="middle" x="878.3176" y="-895.8" font-family="Times,serif" font-size="14.00" fill="#000000">class = Negative</text>
</g>
<!-- 33&#45;&gt;34 -->
<g id="edge34" class="edge">
<title>33&#45;&gt;34</title>
<path fill="none" stroke="#000000" d="M878.3176,-1006.9891C878.3176,-996.0272 878.3176,-984.309 878.3176,-973.2667"/>
<polygon fill="#000000" stroke="#000000" points="881.8177,-972.9335 878.3176,-962.9335 874.8177,-972.9335 881.8177,-972.9335"/>
</g>
<!-- 35 -->
<g id="node36" class="node">
<title>35</title>
<polygon fill="none" stroke="#000000" points="1201.9771,-971.2 950.6581,-971.2 950.6581,-879.2 1201.9771,-879.2 1201.9771,-971.2"/>
<text text-anchor="middle" x="1076.3176" y="-954.6" font-family="Times,serif" font-size="14.00" fill="#000000">형광 투시된 주요 혈관의 수 (0&#45;3) &lt;= 0.5</text>
<text text-anchor="middle" x="1076.3176" y="-937.8" font-family="Times,serif" font-size="14.00" fill="#000000">gini = 0.375</text>
<text text-anchor="middle" x="1076.3176" y="-921" font-family="Times,serif" font-size="14.00" fill="#000000">samples = 20</text>
<text text-anchor="middle" x="1076.3176" y="-904.2" font-family="Times,serif" font-size="14.00" fill="#000000">value = [15, 5]</text>
<text text-anchor="middle" x="1076.3176" y="-887.4" font-family="Times,serif" font-size="14.00" fill="#000000">class = Negative</text>
</g>
<!-- 33&#45;&gt;35 -->
<g id="edge35" class="edge">
<title>33&#45;&gt;35</title>
<path fill="none" stroke="#000000" d="M949.5204,-1007.1699C964.7683,-997.3127 980.9735,-986.8366 996.5215,-976.7853"/>
<polygon fill="#000000" stroke="#000000" points="998.5836,-979.62 1005.0815,-971.2516 994.7833,-973.7414 998.5836,-979.62"/>
</g>
<!-- 36 -->
<g id="node37" class="node">
<title>36</title>
<polygon fill="none" stroke="#000000" points="1058.4534,-834.9003 950.1818,-834.9003 950.1818,-759.4997 1058.4534,-759.4997 1058.4534,-834.9003"/>
<text text-anchor="middle" x="1004.3176" y="-818.2" font-family="Times,serif" font-size="14.00" fill="#000000">gini = 0.0</text>
<text text-anchor="middle" x="1004.3176" y="-801.4" font-family="Times,serif" font-size="14.00" fill="#000000">samples = 14</text>
<text text-anchor="middle" x="1004.3176" y="-784.6" font-family="Times,serif" font-size="14.00" fill="#000000">value = [14, 0]</text>
<text text-anchor="middle" x="1004.3176" y="-767.8" font-family="Times,serif" font-size="14.00" fill="#000000">class = Negative</text>
</g>
<!-- 35&#45;&gt;36 -->
<g id="edge36" class="edge">
<title>35&#45;&gt;36</title>
<path fill="none" stroke="#000000" d="M1050.3239,-878.9891C1043.9036,-867.5752 1037.0221,-855.3413 1030.5887,-843.9042"/>
<polygon fill="#000000" stroke="#000000" points="1033.4959,-841.9333 1025.5427,-834.9335 1027.3948,-845.3652 1033.4959,-841.9333"/>
</g>
<!-- 37 -->
<g id="node38" class="node">
<title>37</title>
<polygon fill="none" stroke="#000000" points="1217.784,-843.2 1076.8512,-843.2 1076.8512,-751.2 1217.784,-751.2 1217.784,-843.2"/>
<text text-anchor="middle" x="1147.3176" y="-826.6" font-family="Times,serif" font-size="14.00" fill="#000000">최대 심박동수 &lt;= 170.5</text>
<text text-anchor="middle" x="1147.3176" y="-809.8" font-family="Times,serif" font-size="14.00" fill="#000000">gini = 0.278</text>
<text text-anchor="middle" x="1147.3176" y="-793" font-family="Times,serif" font-size="14.00" fill="#000000">samples = 6</text>
<text text-anchor="middle" x="1147.3176" y="-776.2" font-family="Times,serif" font-size="14.00" fill="#000000">value = [1, 5]</text>
<text text-anchor="middle" x="1147.3176" y="-759.4" font-family="Times,serif" font-size="14.00" fill="#000000">class = Positive</text>
</g>
<!-- 35&#45;&gt;37 -->
<g id="edge37" class="edge">
<title>35&#45;&gt;37</title>
<path fill="none" stroke="#000000" d="M1101.9502,-878.9891C1106.7763,-870.2885 1111.8667,-861.1115 1116.8242,-852.1741"/>
<polygon fill="#000000" stroke="#000000" points="1119.9326,-853.7856 1121.7226,-843.3431 1113.8112,-850.3902 1119.9326,-853.7856"/>
</g>
<!-- 38 -->
<g id="node39" class="node">
<title>38</title>
<polygon fill="none" stroke="#000000" points="1137.035,-706.9003 1033.6002,-706.9003 1033.6002,-631.4997 1137.035,-631.4997 1137.035,-706.9003"/>
<text text-anchor="middle" x="1085.3176" y="-690.2" font-family="Times,serif" font-size="14.00" fill="#000000">gini = 0.0</text>
<text text-anchor="middle" x="1085.3176" y="-673.4" font-family="Times,serif" font-size="14.00" fill="#000000">samples = 5</text>
<text text-anchor="middle" x="1085.3176" y="-656.6" font-family="Times,serif" font-size="14.00" fill="#000000">value = [0, 5]</text>
<text text-anchor="middle" x="1085.3176" y="-639.8" font-family="Times,serif" font-size="14.00" fill="#000000">class = Positive</text>
</g>
<!-- 37&#45;&gt;38 -->
<g id="edge38" class="edge">
<title>37&#45;&gt;38</title>
<path fill="none" stroke="#000000" d="M1124.9342,-750.9891C1119.4603,-739.6882 1113.5971,-727.5835 1108.1046,-716.2441"/>
<polygon fill="#000000" stroke="#000000" points="1111.104,-714.4076 1103.5948,-706.9335 1104.8042,-717.4591 1111.104,-714.4076"/>
</g>
<!-- 39 -->
<g id="node40" class="node">
<title>39</title>
<polygon fill="none" stroke="#000000" points="1263.4534,-706.9003 1155.1818,-706.9003 1155.1818,-631.4997 1263.4534,-631.4997 1263.4534,-706.9003"/>
<text text-anchor="middle" x="1209.3176" y="-690.2" font-family="Times,serif" font-size="14.00" fill="#000000">gini = 0.0</text>
<text text-anchor="middle" x="1209.3176" y="-673.4" font-family="Times,serif" font-size="14.00" fill="#000000">samples = 1</text>
<text text-anchor="middle" x="1209.3176" y="-656.6" font-family="Times,serif" font-size="14.00" fill="#000000">value = [1, 0]</text>
<text text-anchor="middle" x="1209.3176" y="-639.8" font-family="Times,serif" font-size="14.00" fill="#000000">class = Negative</text>
</g>
<!-- 37&#45;&gt;39 -->
<g id="edge39" class="edge">
<title>37&#45;&gt;39</title>
<path fill="none" stroke="#000000" d="M1169.701,-750.9891C1175.1749,-739.6882 1181.0381,-727.5835 1186.5306,-716.2441"/>
<polygon fill="#000000" stroke="#000000" points="1189.831,-717.4591 1191.0404,-706.9335 1183.5312,-714.4076 1189.831,-717.4591"/>
</g>
</g>
</svg>